<svg id="visual" viewBox="0 0 960 540" width="960" height="540" xmlns="http://www.w3.org/2000/svg" xmlns:xlink="http://www.w3.org/1999/xlink" version="1.1"><rect x="0" y="0" width="960" height="540" fill="#001220"></rect><path d="M0 354L22.8 348.7C45.7 343.3 91.3 332.7 137 334.7C182.7 336.7 228.3 351.3 274 364C319.7 376.7 365.3 387.3 411.2 385.8C457 384.3 503 370.7 548.8 368.5C594.7 366.3 640.3 375.7 686 369.8C731.7 364 777.3 343 823 331.5C868.7 320 914.3 318 937.2 317L960 316L960 541L937.2 541C914.3 541 868.7 541 823 541C777.3 541 731.7 541 686 541C640.3 541 594.7 541 548.8 541C503 541 457 541 411.2 541C365.3 541 319.7 541 274 541C228.3 541 182.7 541 137 541C91.3 541 45.7 541 22.8 541L0 541Z" fill="#fa7268"></path><path d="M0 416L22.8 412.5C45.7 409 91.3 402 137 393C182.7 384 228.3 373 274 373.8C319.7 374.7 365.3 387.3 411.2 387.2C457 387 503 374 548.8 376.7C594.7 379.3 640.3 397.7 686 399C731.7 400.3 777.3 384.7 823 375.8C868.7 367 914.3 365 937.2 364L960 363L960 541L937.2 541C914.3 541 868.7 541 823 541C777.3 541 731.7 541 686 541C640.3 541 594.7 541 548.8 541C503 541 457 541 411.2 541C365.3 541 319.7 541 274 541C228.3 541 182.7 541 137 541C91.3 541 45.7 541 22.8 541L0 541Z" fill="#ef5f67"></path><path d="M0 447L22.8 447.3C45.7 447.7 91.3 448.3 137 448.7C182.7 449 228.3 449 274 442.5C319.7 436 365.3 423 411.2 413.8C457 404.7 503 399.3 548.8 405.2C594.7 411 640.3 428 686 433.7C731.7 439.3 777.3 433.7 823 431.2C868.7 428.7 914.3 429.3 937.2 429.7L960 430L960 541L937.2 541C914.3 541 868.7 541 823 541C777.3 541 731.7 541 686 541C640.3 541 594.7 541 548.8 541C503 541 457 541 411.2 541C365.3 541 319.7 541 274 541C228.3 541 182.7 541 137 541C91.3 541 45.7 541 22.8 541L0 541Z" fill="#e34c67"></path><path d="M0 487L22.8 487C45.7 487 91.3 487 137 483.2C182.7 479.3 228.3 471.7 274 467.3C319.7 463 365.3 462 411.2 465.2C457 468.3 503 475.7 548.8 477C594.7 478.3 640.3 473.7 686 473.3C731.7 473 777.3 477 823 472C868.7 467 914.3 453 937.2 446L960 439L960 541L937.2 541C914.3 541 868.7 541 823 541C777.3 541 731.7 541 686 541C640.3 541 594.7 541 548.8 541C503 541 457 541 411.2 541C365.3 541 319.7 541 274 541C228.3 541 182.7 541 137 541C91.3 541 45.7 541 22.8 541L0 541Z" fill="#d53867"></path><path d="M0 511L22.8 510.5C45.7 510 91.3 509 137 504.5C182.7 500 228.3 492 274 490.8C319.7 489.7 365.3 495.3 411.2 497.8C457 500.3 503 499.7 548.8 497.7C594.7 495.7 640.3 492.3 686 493.2C731.7 494 777.3 499 823 497.8C868.7 496.7 914.3 489.3 937.2 485.7L960 482L960 541L937.2 541C914.3 541 868.7 541 823 541C777.3 541 731.7 541 686 541C640.3 541 594.7 541 548.8 541C503 541 457 541 411.2 541C365.3 541 319.7 541 274 541C228.3 541 182.7 541 137 541C91.3 541 45.7 541 22.8 541L0 541Z" fill="#c62368"></path></svg>