<svg id="visual" viewBox="0 0 960 540" width="960" height="540" xmlns="http://www.w3.org/2000/svg" xmlns:xlink="http://www.w3.org/1999/xlink" version="1.1"><rect x="0" y="0" width="960" height="540" fill="#001220"></rect><defs><linearGradient id="grad1_0" x1="43.8%" y1="0%" x2="100%" y2="100%"><stop offset="14.444444444444446%" stop-color="#fa7268" stop-opacity="1"></stop><stop offset="85.55555555555554%" stop-color="#fa7268" stop-opacity="1"></stop></linearGradient></defs><defs><linearGradient id="grad1_1" x1="43.8%" y1="0%" x2="100%" y2="100%"><stop offset="14.444444444444446%" stop-color="#fa7268" stop-opacity="1"></stop><stop offset="85.55555555555554%" stop-color="#001220" stop-opacity="1"></stop></linearGradient></defs><defs><linearGradient id="grad2_0" x1="0%" y1="0%" x2="56.3%" y2="100%"><stop offset="14.444444444444446%" stop-color="#fa7268" stop-opacity="1"></stop><stop offset="85.55555555555554%" stop-color="#fa7268" stop-opacity="1"></stop></linearGradient></defs><defs><linearGradient id="grad2_1" x1="0%" y1="0%" x2="56.3%" y2="100%"><stop offset="14.444444444444446%" stop-color="#001220" stop-opacity="1"></stop><stop offset="85.55555555555554%" stop-color="#fa7268" stop-opacity="1"></stop></linearGradient></defs><g transform="translate(960, 0)"><path d="M0 432C-26.6 386.6 -53.3 341.3 -89.3 333.2C-125.3 325.2 -170.7 354.5 -200.5 347.3C-230.3 340.1 -244.5 296.4 -268 268C-291.5 239.6 -324.1 226.6 -352.5 203.5C-380.8 180.4 -404.8 147.4 -417.3 111.8C-429.8 76.2 -430.9 38.1 -432 0L0 0Z" fill="#723f71"></path><path d="M0 216C-13.3 193.3 -26.6 170.6 -44.6 166.6C-62.7 162.6 -85.3 177.2 -100.2 173.6C-115.2 170 -122.3 148.2 -134 134C-145.7 119.8 -162.1 113.3 -176.2 101.8C-190.4 90.2 -202.4 73.7 -208.6 55.9C-214.9 38.1 -215.5 19.1 -216 0L0 0Z" fill="#fa7268"></path></g><g transform="translate(0, 540)"><path d="M0 -432C40.1 -434 80.3 -436.1 111.3 -415.3C142.3 -394.6 164.3 -351.2 186.5 -323C208.7 -294.9 231.2 -282 270.1 -270.1C309 -258.2 364.2 -247.2 374.1 -216C384 -184.8 348.5 -133.3 350.6 -94C352.7 -54.6 392.4 -27.3 432 0L0 0Z" fill="#723f71"></path><path d="M0 -216C20.1 -217 40.1 -218 55.6 -207.7C71.2 -197.3 82.1 -175.6 93.2 -161.5C104.4 -147.4 115.6 -141 135.1 -135.1C154.5 -129.1 182.1 -123.6 187.1 -108C192 -92.4 174.3 -66.7 175.3 -47C176.4 -27.3 196.2 -13.6 216 0L0 0Z" fill="#fa7268"></path></g></svg>